<?xml version="1.0" standalone="no"?>
<!DOCTYPE svg PUBLIC "-//W3C//DTD SVG 20010904//EN"
 "http://www.w3.org/TR/2001/REC-SVG-20010904/DTD/svg10.dtd">
<svg version="1.0" xmlns="http://www.w3.org/2000/svg"
 width="512.000000pt" height="512.000000pt" viewBox="0 0 512.000000 512.000000"
 preserveAspectRatio="xMidYMid meet">
<metadata>
Created by potrace 1.11, written by Peter Selinger 2001-2013
</metadata>
<g transform="translate(0.000000,512.000000) scale(0.100000,-0.100000)"
fill="#000000" stroke="none">
<path d="M540 4143 c-140 -49 -222 -169 -216 -318 5 -120 70 -218 182 -275
l49 -25 2005 0 2005 0 50 25 c165 81 226 264 148 439 -21 47 -89 111 -148 141
l-50 25 -1990 2 c-1789 2 -1995 0 -2035 -14z"/>
<path d="M540 2863 c-84 -29 -143 -81 -186 -164 -26 -47 -29 -64 -28 -139 0
-69 5 -94 24 -135 31 -63 91 -124 155 -155 l50 -25 2005 0 2005 0 50 25 c165
81 226 264 148 439 -21 47 -89 111 -148 141 l-50 25 -1990 2 c-1786 1 -1995 0
-2035 -14z"/>
<path d="M541 1584 c-143 -50 -228 -179 -218 -326 11 -140 93 -241 236 -287
25 -8 593 -10 2020 -9 l1986 3 50 25 c165 81 226 264 148 439 -21 47 -89 111
-148 141 l-50 25 -1990 2 c-1773 2 -1995 0 -2034 -13z"/>
</g>
</svg>
